{"title":"The Pack - Wolfpack Party [KingPinVideos]","uid":5809515,"size":93056768,"categoryP":"video","categoryS":"music_videos","magnet":"?xt=urn:btih:ab1307458693a1daae2baa796a60ca7d72465eee&amp;dn=The+Pack+-+Wolfpack+Party+%5BKingPinVideos%5D&amp;tr=udp%3A%2F%2Ftracker.openbittorrent.com%3A80&amp;tr=udp%3A%2F%2Fopen.demonii.com%3A1337&amp;tr=udp%3A%2F%2Ftracker.coppersurfer.tk%3A6969&amp;tr=udp%3A%2F%2Fexodus.desync.com%3A6969","seeders":0,"leechers":0,"uploader":"KingPinMan","files":5,"time":1283574588,"description":"[img]http://a.imageshack.us/img227/1117/thepackwolf.png[/img]\n\n[img]http://a.imageshack.us/img818/4425/thepackwolf2.png[/img]\n\n[code]General\nComplete name                    : The Pack - Wolfpack Party [KingPinVideos].mpg\nFormat                           : MPEG-PS\nFile size                        : 88.7 MiB\nDuration                         : 4mn 20s\nOverall bit rate                 : 2 856 Kbps\nWriting library                  : encoded by TMPGEnc 4.0 XPress Version. 4.7.4.299\n\nVideo\nID                               : 224 (0xE0)\nFormat                           : MPEG Video\nFormat version                   : Version 1\nFormat settings, BVOP            : Yes\nFormat settings, Matrix          : Default\nDuration                         : 4mn 20s\nBit rate mode                    : Constant\nBit rate                         : 2 615 Kbps\nNominal bit rate                 : 2 700 Kbps\nWidth                            : 384 pixels\nHeight                           : 208 pixels\nDisplay aspect ratio             : 16:9\nFrame rate                       : 29.970 fps\nResolution                       : 8 bits\nScan type                        : Progressive\nBits/(Pixel*Frame)               : 1.092\nStream size                      : 81.2 MiB (92%)\nWriting library                  : TMPGEnc XPress 4.7.4.299\n\nAudio\nID                               : 192 (0xC0)\nFormat                           : MPEG Audio\nFormat version                   : Version 1\nFormat profile                   : Layer 2\nDuration                         : 4mn 20s\nBit rate mode                    : Constant\nBit rate                         : 128 Kbps\nChannel(s)                       : 2 channels\nSampling rate                    : 48.0 KHz\nStream size                      : 3.98 MiB (4%)[/code]","torrent":{"xt":"urn:btih:ab1307458693a1daae2baa796a60ca7d72465eee","amp;dn":"The+Pack+-+Wolfpack+Party+%5BKingPinVideos%5D","amp;tr":["udp%3A%2F%2Ftracker.openbittorrent.com%3A80","udp%3A%2F%2Fopen.demonii.com%3A1337","udp%3A%2F%2Ftracker.coppersurfer.tk%3A6969","udp%3A%2F%2Fexodus.desync.com%3A6969"],"infoHash":"ab1307458693a1daae2baa796a60ca7d72465eee","infoHashBuffer":{"type":"Buffer","data":[171,19,7,69,134,147,161,218,174,43,170,121,106,96,202,125,114,70,94,238]},"announce":[],"urlList":[]}}